<?xml version="1.0" encoding="UTF-8"?>
<svg version="1.1" xmlns="http://www.w3.org/2000/svg" width="512" height="512">
<path d="M0 0 C1.89200669 1.58824415 2.89401952 2.78803905 4 5 C4.22712219 7.84005386 4.40143648 10.66306966 4.53515625 13.5078125 C4.57813339 14.34843231 4.62111053 15.18905212 4.66539001 16.05514526 C4.80194073 18.74490549 4.93228872 21.43492615 5.0625 24.125 C5.15388908 25.94663509 5.24568084 27.76825002 5.33789062 29.58984375 C5.5632701 34.05967522 5.78308647 38.52975002 6 43 C12.43597465 45.2031629 18.81258873 47.32401743 25.4375 48.875 C33.46794423 50.81095434 41.38887593 53.07671219 49.32421875 55.3671875 C55.29063479 57.08912994 61.26913815 58.76652747 67.25 60.4375 C68.29526855 60.72987549 69.34053711 61.02225098 70.41748047 61.32348633 C75.71101004 62.80355039 81.00550199 64.28011524 86.30078125 65.75390625 C100.56571399 69.72914293 114.79369061 73.82009251 129 78 C128.70471602 79.88087175 128.40419753 81.76092205 128.1015625 83.640625 C127.93479004 84.68766602 127.76801758 85.73470703 127.59619141 86.81347656 C126.74851278 91.34414872 125.41807182 95.61686891 124 100 C118.06 99.01 118.06 99.01 112 98 C115.89791493 105.88913101 119.82472779 113.75333442 124 121.5 C128.52776666 129.91092467 132.76334639 138.46031609 137 147.02050781 C140.5448522 154.17598584 144.13078319 161.29230873 147.9375 168.3125 C151.39217888 174.69343523 154.51890051 181.20217245 157.54980469 187.79418945 C159.42651518 191.83630373 161.38661758 195.75522919 163.640625 199.6015625 C170.78702228 211.85310518 170.78702228 211.85310518 169.8125 218.1875 C168.53104524 222.32855577 166.83429918 225.72284158 164 229 C163.34 229 162.68 229 162 229 C162 229.66 162 230.32 162 231 C161.34 231 160.68 231 160 231 C159.67 231.99 159.34 232.98 159 234 C143.17334386 249.00729247 115.48437316 251.37170779 95 251 C75.42994798 250.24499492 55.55720182 245.51340147 40 233 C40 232.34 40 231.68 40 231 C39.34 231 38.68 231 38 231 C38 230.34 38 229.68 38 229 C37.34 229 36.68 229 36 229 C29.89541432 219.06596943 29.89541432 219.06596943 30 213 C31.30228448 208.23184731 32.9424241 203.73900367 35.515625 199.5078125 C37.06660039 196.88748039 38.02878498 194.38127121 39 191.5 C40.29741691 187.65099651 41.8874422 184.46194027 44 181 C44.66158156 179.47367404 45.28690205 177.93111758 45.875 176.375 C48.04119849 170.81536509 50.49976722 165.41591209 53 160 C53.87653473 158.08403471 54.75155744 156.16737691 55.625 154.25 C56.00914062 153.40953125 56.39328125 152.5690625 56.7890625 151.703125 C58.23086314 148.48465389 59.61332183 145.24258582 61 142 C62.03977329 139.62414497 63.0814073 137.24917338 64.125 134.875 C66.56864623 129.30987399 68.97184611 123.72884135 71.35131836 118.13598633 C75.38289355 108.66499788 79.56289996 99.28794896 84 90 C83.4423999 89.95319092 82.8847998 89.90638184 82.31030273 89.8581543 C77.00246373 89.35027267 72.15507318 88.35608665 67.0625 86.8125 C59.37068629 84.57522759 51.62472259 82.70558542 43.8125 80.9375 C32.70523138 78.41642916 21.70257265 75.72021382 10.79101562 72.44018555 C9.89306274 72.17038376 8.99510986 71.90058197 8.06994629 71.62260437 C7.04532288 71.31441521 7.04532288 71.31441521 6 71 C6.05502182 71.70618973 6.11004364 72.41237946 6.16673279 73.13996887 C7.79334556 94.48137938 8.52794611 115.78904563 9.00616455 137.1831665 C9.17406595 144.64704777 9.35377718 152.11065466 9.53515625 159.57421875 C9.55412083 160.36404837 9.5730854 161.15387798 9.59262466 161.96764183 C9.81780055 171.26114087 10.10534209 180.54247915 10.65589905 189.82333374 C11.10086736 197.35179402 11.2759539 204.88334493 11.4458313 212.42230225 C11.7752643 226.9585568 12.23317781 241.47932455 13 256 C14.01835937 256.02578125 15.03671875 256.0515625 16.0859375 256.078125 C34.8609817 256.75114606 55.47017708 260.70197461 72 270 C72 270.66 72 271.32 72 272 C73.0828125 272.3403125 73.0828125 272.3403125 74.1875 272.6875 C78.64793636 274.76903697 81.30210504 277.95315756 84 282 C84 283.98 84 285.96 84 288 C23.94 288 -36.12 288 -98 288 C-96 280 -96 280 -94 277 C-93.34 277 -92.68 277 -92 277 C-92 276.34 -92 275.68 -92 275 C-91.34 275 -90.68 275 -90 275 C-90 274.34 -90 273.68 -90 273 C-77.8549944 266.65007322 -66.2287483 261.82555728 -52.8125 258.8125 C-52.09537842 258.64524414 -51.37825684 258.47798828 -50.6394043 258.30566406 C-42.5232717 256.59328807 -34.26317141 256.37970286 -26 256 C-25.7094045 247.71402328 -25.42040509 239.42799159 -25.1325798 231.14191818 C-25.08597583 229.80064145 -25.03933751 228.45936591 -24.99266434 227.11809158 C-24.42808835 210.89241911 -23.88250025 194.666935 -23.4375 178.4375 C-23.19224859 169.51353453 -22.84819932 160.62240546 -22.25 151.71484375 C-21.78684049 143.91169153 -21.65436348 136.08742167 -21.43850708 128.27416992 C-21.22699481 120.65088464 -20.99606055 113.04493733 -20.4375 105.4375 C-20.11225414 99.90832033 -19.93387142 94.41290704 -19.9375 88.875 C-19.93637711 88.15014908 -19.93525421 87.42529816 -19.93409729 86.67848206 C-19.92698066 79.45225175 -19.95701512 72.22608862 -20 65 C-39.63111731 60.05355432 -39.63111731 60.05355432 -59.3125 55.3125 C-66.27098448 53.67385519 -73.1798898 51.92082167 -80.078125 50.04296875 C-85.85275762 48.48650098 -91.66696844 47.08036366 -97.47680664 45.66210938 C-98.29528076 45.46037109 -99.11375488 45.25863281 -99.95703125 45.05078125 C-100.68897705 44.87200439 -101.42092285 44.69322754 -102.17504883 44.5090332 C-104 44 -104 44 -106 43 C-105.62488281 43.87140625 -105.24976563 44.7428125 -104.86328125 45.640625 C-102.41832713 51.33114794 -99.98202777 57.02234207 -97.625 62.75 C-94.55780035 70.14273762 -91.26613072 77.43494735 -88.00537109 84.74365234 C-83.70770236 94.3888817 -79.53803061 104.07109125 -75.55664062 113.85131836 C-73.35196102 119.23234676 -70.93879123 124.49493219 -68.46484375 129.7578125 C-66.58646659 133.91528729 -64.91832741 138.14625526 -63.26074219 142.39477539 C-61.15216061 147.75026701 -58.73359325 152.92912873 -56.19921875 158.09765625 C-53.7187078 164.10097755 -53.9107309 167.94219266 -56.10546875 173.875 C-57.18658675 176.44324539 -58.33678503 178.75827547 -60 181 C-60.66 181 -61.32 181 -62 181 C-62 181.66 -62 182.32 -62 183 C-62.66 183 -63.32 183 -64 183 C-64.33 183.99 -64.66 184.98 -65 186 C-80.82665614 201.00729247 -108.51562684 203.37170779 -129 203 C-148.57005202 202.24499492 -168.44279818 197.51340147 -184 185 C-184 184.34 -184 183.68 -184 183 C-184.66 183 -185.32 183 -186 183 C-186 182.34 -186 181.68 -186 181 C-186.66 181 -187.32 181 -188 181 C-194.10636959 171.06306647 -194.10636959 171.06306647 -194 165 C-193.01710106 161.49882405 -191.53558132 158.2905314 -190 155 C-189.46632813 153.82695312 -188.93265625 152.65390625 -188.3828125 151.4453125 C-185.28109978 144.67443651 -182.01578763 137.99628056 -178.66015625 131.34765625 C-173.80948461 121.56641955 -169.22732959 111.64997517 -164.625 101.75 C-161.14266607 94.26460931 -157.57483415 86.82086162 -153.99462891 79.38183594 C-151.7919033 74.79422243 -149.62281733 70.19628106 -147.52734375 65.55859375 C-144.83483849 59.60086803 -142.01863751 53.70534831 -139.1875 47.8125 C-138.68541016 46.76513672 -138.18332031 45.71777344 -137.66601562 44.63867188 C-136.44499571 42.09197319 -135.22297823 39.54575868 -134 37 C-134.61488281 36.79503906 -135.22976562 36.59007812 -135.86328125 36.37890625 C-139.2421875 35.25260417 -142.62109375 34.12630208 -146 33 C-145.07835578 25.27987432 -144.14456517 18.14673903 -141 11 C-132.75515093 12.56367827 -124.60761463 14.29252538 -116.4765625 16.37792969 C-110.67373025 17.85637595 -104.84256749 19.1883216 -99 20.5 C-91.51243707 22.1853362 -84.06019362 23.95542168 -76.62109375 25.84375 C-70.42677366 27.4061282 -64.21145871 28.88258944 -58 30.375 C-44.98037251 33.50618482 -31.98400352 36.72444455 -19 40 C-18.98018066 39.13310547 -18.96036133 38.26621094 -18.93994141 37.37304688 C-18.86132693 34.12249032 -18.7746183 30.87227343 -18.68261719 27.62207031 C-18.64459687 26.22176265 -18.60969966 24.82136626 -18.578125 23.42089844 C-18.22870513 8.11194052 -18.22870513 8.11194052 -16 2 C-10.95327887 -1.39881219 -5.84284752 -1.78908897 0 0 Z M-131 73 C-131.27674561 73.69448242 -131.55349121 74.38896484 -131.83862305 75.10449219 C-133.12062776 78.32004283 -134.40405782 81.53502284 -135.6875 84.75 C-136.12255859 85.84183594 -136.55761719 86.93367188 -137.00585938 88.05859375 C-139.16979078 93.47643681 -141.35815954 98.88112994 -143.61328125 104.26171875 C-145.66540454 109.16340794 -147.60798485 114.09728851 -149.5 119.0625 C-151.72784242 124.85911083 -154.10488191 130.5221496 -156.74609375 136.14453125 C-158.64577322 140.4705926 -160.25525198 144.90062295 -161.85766602 149.34423828 C-162.97865858 152.42187939 -164.16703112 155.32124357 -165.6796875 158.23046875 C-167.28688593 161.09042354 -167.28688593 161.09042354 -167 165 C-154.79 165 -142.58 165 -130 165 C-130 134.64 -130 104.28 -130 73 C-130.33 73 -130.66 73 -131 73 Z M-118 73 C-118 103.36 -118 133.72 -118 165 C-105.79 165 -93.58 165 -81 165 C-82.41851769 157.90741153 -85.20983396 151.44692367 -87.90234375 144.76171875 C-89.10872921 141.72643577 -90.27428343 138.67707607 -91.4375 135.625 C-94.74248458 127.00987251 -98.33733437 118.53065788 -102 110.0625 C-104.34923567 104.59888319 -106.52677066 99.09230166 -108.6328125 93.53125 C-111.30125141 86.63905351 -114.16392757 79.82455469 -117 73 C-117.33 73 -117.66 73 -118 73 Z M93 121 C92.72325439 121.69448242 92.44650879 122.38896484 92.16137695 123.10449219 C90.87937224 126.32004283 89.59594218 129.53502284 88.3125 132.75 C87.87744141 133.84183594 87.44238281 134.93367187 86.99414062 136.05859375 C84.83020922 141.47643681 82.64184046 146.88112994 80.38671875 152.26171875 C78.33459546 157.16340794 76.39201515 162.09728851 74.5 167.0625 C72.27215758 172.85911083 69.89511809 178.5221496 67.25390625 184.14453125 C65.35422678 188.4705926 63.74474802 192.90062295 62.14233398 197.34423828 C61.02134142 200.42187939 59.83296888 203.32124357 58.3203125 206.23046875 C56.71311407 209.09042354 56.71311407 209.09042354 57 213 C69.21 213 81.42 213 94 213 C94 182.64 94 152.28 94 121 C93.67 121 93.34 121 93 121 Z M106 121 C106 151.36 106 181.72 106 213 C118.21 213 130.42 213 143 213 C141.58148231 205.90741153 138.79016604 199.44692367 136.09765625 192.76171875 C134.89127079 189.72643577 133.72571657 186.67707607 132.5625 183.625 C129.25751542 175.00987251 125.66266563 166.53065788 122 158.0625 C119.65076433 152.59888319 117.47322934 147.09230166 115.3671875 141.53125 C112.69874859 134.63905351 109.83607243 127.82455469 107 121 C106.67 121 106.34 121 106 121 Z " fill="#000000" transform="translate(268,107)"/>
</svg>
